PathFileType	4	(X/Y/Z)	C:\Users\dbl\Desktop\LZH\BX\Trimmed_bx_y_0_1801.trc
DataRate	CameraRate	NumFrames	NumMarkers	Units	OrigDataRate	OrigDataStartFrame	OrigNumFrames
50.00	50.00	      4	43	mm	50.00	1291	      1475
Frame#	Time	Top.Head			R.Acromium			L.Acromium			Sternum			R.ASIS			L.ASIS			V.Sacral			R.Thigh.Upper			R.Thigh.Front			R.Thigh.Rear			R.Knee.Lat			R.Knee.Med			R.Shank.Upper			R.Shank.Front			R.Shank.Rear			R.Ankle.Lat			R.Midfoot.Lat			R.Toe.Lat			R.Toe.Tip			R.Toe.Med			R.Ankle.Med			R.Midfoot.Sup			R.Heel			L.Thigh.Upper			L.Thigh.Front			L.Thigh.Rear			L.Knee.Lat			L.Knee.Med			L.Shank.Upper			L.Shank.Front			L.Shank.Rear			L.Ankle.Lat			L.Midfoot.Lat			L.Toe.Lat			L.Toe.Tip			L.Toe.Med			L.Ankle.Med			L.Midfoot.Sup			L.Heel			origin1 front left			origin2 front right			origin 3 back right			origin 4 back leftt			
		X1	Y1	Z1	X2	Y2	Z2	X3	Y3	Z3	X4	Y4	Z4	X5	Y5	Z5	X6	Y6	Z6	X7	Y7	Z7	X8	Y8	Z8	X9	Y9	Z9	X10	Y10	Z10	X11	Y11	Z11	X12	Y12	Z12	X13	Y13	Z13	X14	Y14	Z14	X15	Y15	Z15	X16	Y16	Z16	X17	Y17	Z17	X18	Y18	Z18	X19	Y19	Z19	X20	Y20	Z20	X21	Y21	Z21	X22	Y22	Z22	X23	Y23	Z23	X24	Y24	Z24	X25	Y25	Z25	X26	Y26	Z26	X27	Y27	Z27	X28	Y28	Z28	X29	Y29	Z29	X30	Y30	Z30	X31	Y31	Z31	X32	Y32	Z32	X33	Y33	Z33	X34	Y34	Z34	X35	Y35	Z35	X36	Y36	Z36	X37	Y37	Z37	X38	Y38	Z38	X39	Y39	Z39	X40	Y40	Z40	X41	Y41	Z41	X42	Y42	Z42	X43	Y43	Z43	

1291	25.800	-671.26343	253.12134	1834.63818	-602.53766	58.86368	1538.12915	-593.01086	454.05948	1521.78113	-505.52414	260.40958	1403.64307	-514.08051	136.91148	1050.32080	-513.87280	383.97144	1056.21802	-711.89038	237.05161	1050.87964	-551.36017	86.66133	890.56653	-506.09058	148.29128	841.71661	-606.96368	83.01505	752.71802	-633.01929	120.26598	608.09052	-623.83148	232.31279	568.58167	-672.92377	120.96645	544.01459	-590.06683	173.53773	548.96631	-714.98926	124.89339	478.78418	-686.87451	147.11003	215.20201	-618.48712	78.67841	166.25800	-573.79578	51.05429	160.80173	-493.37131	91.45592	160.22733	-531.94006	143.80040	164.34668	-630.39856	219.83174	220.03941	-592.51984	188.13925	167.53955	-714.56439	217.06296	171.01762	-553.74615	430.42563	882.53888	-506.36795	371.05215	837.94690	-602.43347	432.24835	753.78394	-641.15039	408.19821	629.45099	-607.08795	305.26627	581.18134	-651.12231	403.92780	566.12274	-598.67822	363.51053	542.59784	-704.53174	408.86615	515.63165	-679.63019	411.18967	215.31303	-586.29480	468.19553	164.78804	-547.13483	479.31805	159.57602	-487.36703	428.34256	169.37273	-524.29187	388.01657	177.11850	-639.61957	323.43253	207.59705	-592.12732	347.13275	168.67390	-730.69995	339.14142	165.98595	-444.04825	448.76611	148.04921	-450.16223	76.12187	143.56758	-806.23663	82.71444	142.60381	-799.15125	457.43106	145.25398	
1292	25.820	-671.53387	252.79109	1834.60620	-602.60364	58.57032	1538.08423	-593.20941	453.89529	1521.81897	-505.66391	260.21457	1403.64075	-514.26428	136.75558	1050.31934	-513.95642	383.81506	1056.21826	-712.05237	236.91176	1050.87537	-551.50751	86.61280	890.50726	-506.20309	148.16109	841.69202	-606.98090	83.01822	752.68811	-633.12994	120.27094	608.05798	-623.97467	232.30849	568.53070	-673.02008	120.91818	543.97235	-590.09546	173.50423	548.92792	-715.08960	124.90936	478.78223	-686.86072	147.10811	215.19604	-618.47321	78.67232	166.27473	-573.79736	51.04847	160.79965	-493.38263	91.44250	160.23868	-531.93475	143.79280	164.33873	-630.41211	219.81003	220.08650	-592.56244	188.02512	167.37833	-714.54028	217.06238	171.01746	-553.86578	430.19775	882.41705	-506.42654	371.00931	837.93744	-602.48505	432.20020	753.79254	-641.17584	408.06277	629.36328	-606.97540	305.33542	581.23047	-651.12195	403.91672	566.14697	-598.68732	363.47708	542.57001	-704.60870	408.82028	515.64618	-679.62653	411.18271	215.31831	-586.29803	468.17468	164.78896	-547.13721	479.31525	159.57654	-487.33060	428.28964	169.45758	-524.29895	388.04034	177.13721	-639.62360	323.44397	207.59950	-592.11847	347.12466	168.67294	-730.72375	339.14456	165.99017	-444.04404	448.74884	148.03952	-450.15948	76.10170	143.58098	-806.23663	82.72021	142.59004	-799.14911	457.44907	145.23483	
1293	25.840	-671.83020	252.45375	1834.59021	-602.70447	58.30116	1538.04688	-593.43500	453.71637	1521.86853	-505.83920	259.99808	1403.63354	-514.46704	136.58987	1050.31274	-514.06512	383.65292	1056.24207	-712.22223	236.76558	1050.89221	-551.69263	86.54916	890.45532	-506.33597	148.03174	841.67584	-607.01416	83.01881	752.63409	-633.24506	120.29720	608.00397	-624.09460	232.30869	568.46130	-673.11304	120.86855	543.92706	-590.13031	173.47742	548.90076	-715.19330	124.92651	478.77954	-686.84784	147.11186	215.19565	-618.47968	78.68430	166.25150	-573.79211	51.03731	160.80641	-493.40094	91.42723	160.24149	-531.92670	143.79688	164.34938	-630.43286	219.78595	220.12650	-592.58954	187.94250	167.23532	-714.51825	217.07289	171.01019	-553.99280	430.08310	882.46143	-506.51602	370.93195	837.91779	-602.54913	432.11862	753.78656	-641.19098	407.92575	629.28076	-606.96307	305.35678	581.23090	-651.11603	403.90793	566.15881	-598.70374	363.44492	542.54053	-704.67847	408.77615	515.65936	-679.62695	411.18814	215.31877	-586.29816	468.14981	164.77814	-547.14246	479.31235	159.57335	-487.31918	428.25330	169.52325	-524.30591	388.06995	177.16115	-639.62933	323.46576	207.59314	-592.11731	347.12576	168.66536	-730.75079	339.14264	165.98987	-444.03085	448.72092	148.03610	-450.14871	76.07265	143.60184	-806.24182	82.72865	142.56487	-799.14258	457.46875	145.21777	
1294	25.860	-672.15338	252.11069	1834.58740	-602.84357	58.06118	1538.01794	-593.65869	453.52237	1521.93274	-506.04007	259.77646	1403.62524	-514.67163	136.43498	1050.30139	-514.20758	383.48831	1056.28809	-712.39288	236.61162	1050.93408	-551.91205	86.46481	890.40771	-506.49768	147.90990	841.66473	-607.08026	82.99805	752.57269	-633.35736	120.33643	607.93317	-624.18201	232.30594	568.38593	-673.19928	120.81496	543.88635	-590.17621	173.45486	548.89404	-715.28571	124.94435	478.77441	-686.84204	147.11807	215.19888	-618.49994	78.71277	166.20053	-573.78058	51.02543	160.82175	-493.41794	91.41365	160.23077	-531.91779	143.80876	164.37115	-630.45587	219.76712	220.14569	-592.58344	187.93494	167.17586	-714.49774	217.08788	170.99283	-554.12732	430.08929	882.67017	-506.64288	370.81958	837.89667	-602.63574	431.99481	753.75800	-641.21094	407.79956	629.20227	-607.02533	305.34033	581.19177	-651.10565	403.90308	566.16425	-598.74646	363.41010	542.50702	-704.74475	408.73447	515.66309	-679.62738	411.20050	215.30939	-586.29633	468.12485	164.75865	-547.14746	479.30923	159.56715	-487.32574	428.23492	169.56662	-524.31042	388.09503	177.18806	-639.63556	323.49243	207.57597	-592.12292	347.13528	168.65172	-730.77496	339.13913	165.97971	-444.01730	448.69180	148.03569	-450.13556	76.03415	143.63048	-806.25262	82.73544	142.53464	-799.13135	457.49060	145.20734	
